<?xml version="1.0" encoding="UTF-8" standalone="no"?>
<svg
   xmlns:dc="http://purl.org/dc/elements/1.1/"
   xmlns:cc="http://creativecommons.org/ns#"
   xmlns:rdf="http://www.w3.org/1999/02/22-rdf-syntax-ns#"
   xmlns:svg="http://www.w3.org/2000/svg"
   xmlns="http://www.w3.org/2000/svg"
   xmlns:sodipodi="http://sodipodi.sourceforge.net/DTD/sodipodi-0.dtd"
   xmlns:inkscape="http://www.inkscape.org/namespaces/inkscape"
   sodipodi:docname="hout-bay-rainfall-solo.svg"
   inkscape:version="1.0 (4035a4f, 2020-05-01)"
   id="svg2654"
   version="1.1"
   viewBox="0 0 210 297"
   height="297mm"
   width="210mm">
  <defs
     id="defs2648" />
  <sodipodi:namedview
     inkscape:window-maximized="0"
     inkscape:window-y="23"
     inkscape:window-x="0"
     inkscape:window-height="1174"
     inkscape:window-width="1252"
     showgrid="false"
     inkscape:document-rotation="0"
     inkscape:current-layer="layer1"
     inkscape:document-units="mm"
     inkscape:cy="560"
     inkscape:cx="-98.571429"
     inkscape:zoom="0.35"
     inkscape:pageshadow="2"
     inkscape:pageopacity="0.0"
     borderopacity="1.0"
     bordercolor="#666666"
     pagecolor="#ffffff"
     id="base" />
  <metadata
     id="metadata2651">
    <rdf:RDF>
      <cc:Work
         rdf:about="">
        <dc:format>image/svg+xml</dc:format>
        <dc:type
           rdf:resource="http://purl.org/dc/dcmitype/StillImage" />
        <dc:title></dc:title>
      </cc:Work>
    </rdf:RDF>
  </metadata>
  <g
     id="layer1"
     inkscape:groupmode="layer"
     inkscape:label="Layer 1">
    <text
       inkscape:export-ydpi="206.42"
       inkscape:export-xdpi="206.42"
       xml:space="preserve"
       style="font-style:normal;font-variant:normal;font-weight:normal;font-stretch:normal;font-size:25.4px;line-height:0%;font-family:'Cardenio Modern';-inkscape-font-specification:'Cardenio Modern, Normal';font-variant-ligatures:normal;font-variant-caps:normal;font-variant-numeric:normal;font-variant-east-asian:normal;letter-spacing:0px;word-spacing:0px;fill:#000000;fill-opacity:1;stroke:none;stroke-width:0.282223px;stroke-linecap:butt;stroke-linejoin:miter;stroke-opacity:1"
       x="89.125267"
       y="142.77422"
       id="text4169-48-7"><tspan
         sodipodi:role="line"
         id="tspan4171-3-6"
         x="89.125267"
         y="142.77422"
         style="font-style:normal;font-variant:normal;font-weight:normal;font-stretch:normal;font-size:25.4px;line-height:1.25;font-family:'Cardenio Modern';-inkscape-font-specification:'Cardenio Modern, Normal';font-variant-ligatures:normal;font-variant-caps:normal;font-variant-numeric:normal;font-variant-east-asian:normal;stroke-width:0.282223px">Hout Bay</tspan></text>
    <path
       inkscape:export-ydpi="206.42"
       inkscape:export-xdpi="206.42"
       id="path247-0-1"
       style="fill:#124994;fill-opacity:1;fill-rule:nonzero;stroke:none;stroke-width:0.0561607"
       d="m 72.850013,146.85846 c -0.225766,0.43747 -0.576215,0.79522 -1.006962,1.0311 l 1.305732,3.79928 c 0.157255,-0.0314 0.319561,-0.0488 0.485794,-0.0488 0.690776,0 1.3136,0.28809 1.76064,0.74862 l 3.940794,-3.47636 -6.485998,-2.05379" />
    <path
       inkscape:export-ydpi="206.42"
       inkscape:export-xdpi="206.42"
       id="path249-6-4"
       style="fill:#124994;fill-opacity:1;fill-rule:nonzero;stroke:none;stroke-width:0.0561607"
       d="m 73.61155,161.24065 7.215531,-3.11466 -5.355484,-2.40987 c -0.450971,0.51108 -1.103,0.8413 -1.83702,0.8413 -0.03931,0 -0.07638,-0.0102 -0.115128,-0.0119 l -1.041226,3.79759 c 0.461645,0.18141 0.856454,0.49422 1.133327,0.89744" />
    <path
       inkscape:export-ydpi="206.42"
       inkscape:export-xdpi="206.42"
       id="path251-7-9"
       style="fill:#124994;fill-opacity:1;fill-rule:nonzero;stroke:none;stroke-width:0.0561607"
       d="m 81.1955,154.79847 c -0.09267,-1.88702 -0.427384,-3.76501 -0.931709,-5.61441 l -4.404124,3.88465 c 0.146018,0.3145 0.233627,0.66102 0.233627,1.02999 0,0.32518 -0.06683,0.63461 -0.181965,0.91934 l 5.251596,2.36268 c 0.04268,-0.48971 0.07132,-0.98281 0.07132,-1.48262 0,-0.36955 -0.01572,-0.73573 -0.03875,-1.09963" />
    <path
       inkscape:export-ydpi="206.42"
       inkscape:export-xdpi="206.42"
       id="path253-0-6"
       style="fill:#124994;fill-opacity:1;fill-rule:nonzero;stroke:none;stroke-width:0.0561607"
       d="m 72.388934,151.99042 -1.316974,-3.83128 c -0.130852,0.0214 -0.262829,0.0404 -0.399299,0.0404 -0.940694,0 -1.749968,-0.5369 -2.163311,-1.3153 l -3.154548,1.0401 c 0.01854,0.1213 0.03706,0.24263 0.03706,0.36842 0,0.29989 -0.06121,0.58352 -0.160057,0.84858 l 6.335487,3.63754 c 0.207238,-0.32461 0.490289,-0.59137 0.821637,-0.7885" />
    <path
       inkscape:export-ydpi="206.42"
       inkscape:export-xdpi="206.42"
       id="path255-7-4"
       style="fill:#124994;fill-opacity:1;fill-rule:nonzero;stroke:none;stroke-width:0.0561607"
       d="m 69.296161,163.50954 -4.817467,1.04742 c 0.0022,0.0382 0.0118,0.0747 0.0118,0.11342 0,0.49759 -0.151073,0.95981 -0.406041,1.34674 l 5.881149,5.4549 0.778385,-6.54329 c -0.664381,-0.24373 -1.192857,-0.76042 -1.447826,-1.41919" />
    <path
       inkscape:export-ydpi="206.42"
       inkscape:export-xdpi="206.42"
       id="path257-3-2"
       style="fill:#124994;fill-opacity:1;fill-rule:nonzero;stroke:none;stroke-width:0.0561607"
       d="m 71.584709,165.08655 c -0.01236,0 -0.02416,-0.004 -0.03651,-0.004 l -0.826122,6.94653 c 2.750193,-1.31922 5.114563,-3.24104 6.902157,-5.58464 l -4.159824,-2.25109 c -0.451533,0.54082 -1.122093,0.89295 -1.879704,0.89295" />
    <path
       inkscape:export-ydpi="206.42"
       inkscape:export-xdpi="206.42"
       id="path259-3-8"
       style="fill:#124994;fill-opacity:1;fill-rule:nonzero;stroke:none;stroke-width:0.0561607"
       d="m 73.131379,145.74086 c 0,0.11625 -0.0191,0.22688 -0.03426,0.3392 l 6.899912,2.18466 c -1.226553,-4.00987 -3.251708,-7.85072 -5.51611,-11.29056 l -2.560932,6.66011 c 0.72167,0.4285 1.21139,1.20802 1.21139,2.10659" />
    <path
       inkscape:export-ydpi="206.42"
       inkscape:export-xdpi="206.42"
       id="path261-21-4"
       style="fill:#124994;fill-opacity:1;fill-rule:nonzero;stroke:none;stroke-width:0.0561607"
       d="m 74.043427,162.62783 c 0,0.3044 -0.0629,0.59249 -0.163986,0.86151 l 4.231147,2.28967 c 1.405142,-2.0274 2.387391,-4.33392 2.837241,-6.81511 l -7.000435,3.02201 c 0.05616,0.20611 0.09603,0.4184 0.09603,0.64192" />
    <path
       inkscape:export-ydpi="206.42"
       inkscape:export-xdpi="206.42"
       id="path263-4-4"
       style="fill:#124994;fill-opacity:1;fill-rule:nonzero;stroke:none;stroke-width:0.0561607"
       d="m 62.440059,167.08812 v 6.89765 c 2.6199,-0.0517 5.107819,-0.59924 7.368285,-1.54499 L 63.5234,166.61131 c -0.311692,0.24037 -0.678984,0.40829 -1.083341,0.47681" />
    <path
       inkscape:export-ydpi="206.42"
       inkscape:export-xdpi="206.42"
       id="path265-0-9"
       style="fill:#124994;fill-opacity:1;fill-rule:nonzero;stroke:none;stroke-width:0.0561607"
       d="m 64.329867,129.7738 4.035713,-0.76324 c -2.712565,-3.07984 -5.024701,-5.24315 -5.925521,-6.05748 v 5.25382 c 0.874424,0.14772 1.588226,0.75481 1.889808,1.5669" />
    <path
       inkscape:export-ydpi="206.42"
       inkscape:export-xdpi="206.42"
       id="path267-0-8"
       style="fill:#124994;fill-opacity:1;fill-rule:nonzero;stroke:none;stroke-width:0.0561607"
       d="m 69.382648,143.65674 c 0.376278,-0.23363 0.815452,-0.3746 1.290013,-0.3746 0.167357,0 0.330224,0.0175 0.488601,0.0494 l 2.382335,-6.19509 -6.423664,1.60619 c 0.0045,0.0635 0.01911,0.12412 0.01911,0.18872 0,0.58632 -0.215096,1.11813 -0.5588,1.54104 l 2.802425,3.18432" />
    <path
       inkscape:export-ydpi="206.42"
       inkscape:export-xdpi="206.42"
       id="path269-8-1"
       style="fill:#124994;fill-opacity:1;fill-rule:nonzero;stroke:none;stroke-width:0.0561607"
       d="m 66.930672,137.948 7.028514,-1.75728 c -1.631468,-2.39918 -3.353919,-4.58383 -4.972469,-6.46634 l -0.01459,0.003 -2.982135,7.13128 c 0.412219,0.26114 0.742444,0.63856 0.940691,1.08952" />
    <path
       inkscape:export-ydpi="206.42"
       inkscape:export-xdpi="206.42"
       id="path271-7-0"
       style="fill:#124994;fill-opacity:1;fill-rule:nonzero;stroke:none;stroke-width:0.0561607"
       d="m 63.153861,132.79917 1.182746,3.70828 c 0.112883,-0.0158 0.225766,-0.0348 0.343704,-0.0348 0.192069,0 0.37684,0.0277 0.556554,0.0696 l 2.773779,-6.63312 -3.52521,0.66661 c 5.56e-4,0.0169 0.0051,0.032 0.0051,0.0483 0,0.94968 -0.546445,1.76513 -1.336627,2.17509" />
    <path
       inkscape:export-ydpi="206.42"
       inkscape:export-xdpi="206.42"
       id="path273-3-3"
       style="fill:#124994;fill-opacity:1;fill-rule:nonzero;stroke:none;stroke-width:0.0561607"
       d="m 70.85855,144.1178 c -0.06178,-0.007 -0.122431,-0.0186 -0.185889,-0.0186 -0.267329,0 -0.515556,0.0702 -0.739076,0.18364 -0.123555,0.0635 -0.237561,0.14041 -0.340336,0.23083 -0.103336,0.0915 -0.198808,0.19039 -0.276871,0.30441 -0.179713,0.26337 -0.285295,0.5807 -0.285295,0.9227 0,0.0365 0.0084,0.0713 0.01067,0.10783 0.0095,0.14041 0.03651,0.27463 0.07919,0.40381 0.0438,0.13196 0.0994,0.25834 0.17297,0.37346 0.292597,0.45322 0.799729,0.7565 1.378746,0.7565 0.04381,0 0.0848,-0.01 0.128051,-0.013 0.13984,-0.0113 0.274624,-0.0387 0.403233,-0.0831 0.130855,-0.0455 0.257217,-0.10166 0.370662,-0.1769 0.196562,-0.12974 0.359984,-0.30158 0.485228,-0.50094 0.07301,-0.11571 0.128045,-0.24207 0.170164,-0.3746 0.041,-0.12917 0.06739,-0.26396 0.07526,-0.40437 0.0016,-0.0303 0.009,-0.0584 0.009,-0.0887 0,-0.55039 -0.274625,-1.03561 -0.691344,-1.33327 -0.11176,-0.0797 -0.23306,-0.14489 -0.362796,-0.19487 -0.126921,-0.0489 -0.261707,-0.0786 -0.401545,-0.0949" />
    <path
       inkscape:export-ydpi="206.42"
       inkscape:export-xdpi="206.42"
       id="path275-8-7"
       style="fill:#124994;fill-opacity:1;fill-rule:nonzero;stroke:none;stroke-width:0.0561607"
       d="m 72.00591,153.97289 c -0.0034,0.0421 -0.01294,0.0826 -0.01294,0.12581 0,0.13084 0.01963,0.25609 0.0483,0.37796 0.03257,0.13591 0.08424,0.26283 0.148264,0.38356 0.06796,0.12918 0.149948,0.24938 0.249354,0.35495 0.140962,0.15108 0.309444,0.27407 0.498144,0.36336 0.122431,0.0578 0.251601,0.10389 0.38807,0.13031 0.100529,0.0192 0.203864,0.0309 0.309449,0.0309 0.03707,0 0.07189,-0.008 0.10895,-0.0107 0.35325,-0.0237 0.673928,-0.15839 0.931706,-0.37124 0.111197,-0.0927 0.213411,-0.196 0.297093,-0.31448 0.07919,-0.11119 0.142084,-0.23252 0.192069,-0.36169 0.06908,-0.18195 0.11176,-0.37739 0.11176,-0.58293 0,-0.15782 -0.02977,-0.30777 -0.07133,-0.4521 -0.04043,-0.13984 -0.0966,-0.2724 -0.170728,-0.39426 -0.07132,-0.11794 -0.153318,-0.22801 -0.251039,-0.32348 -0.296527,-0.29092 -0.701445,-0.47174 -1.148485,-0.47174 -0.07301,0 -0.143209,0.0124 -0.213974,0.0215 -0.138155,0.0186 -0.272378,0.0488 -0.397616,0.0994 -0.130297,0.0528 -0.249917,0.12356 -0.361116,0.20611 -0.150509,0.11176 -0.284734,0.24429 -0.389195,0.39985 -0.07637,0.11289 -0.13254,0.23814 -0.179152,0.36841 -0.04717,0.13367 -0.07638,0.27407 -0.08761,0.42066" />
    <path
       inkscape:export-ydpi="206.42"
       inkscape:export-xdpi="206.42"
       id="path277-4-4"
       style="fill:#124994;fill-opacity:1;fill-rule:nonzero;stroke:none;stroke-width:0.0561607"
       d="m 70.108805,163.33321 c 0.156128,0.32461 0.415028,0.58745 0.735148,0.75142 0.12411,0.0635 0.254407,0.11571 0.394242,0.14602 0.11176,0.0243 0.227457,0.0388 0.346514,0.0388 0.02077,0 0.04044,-0.006 0.06122,-0.006 0.421767,-0.0164 0.804222,-0.18869 1.086713,-0.46558 0.09884,-0.0971 0.181398,-0.20834 0.253283,-0.32741 0.0702,-0.11681 0.124676,-0.2426 0.163991,-0.37516 0.04493,-0.14938 0.07638,-0.30381 0.07638,-0.46724 0,-0.1084 -0.01236,-0.21398 -0.03257,-0.31674 -0.02638,-0.13705 -0.07414,-0.26509 -0.133101,-0.38752 -0.06009,-0.12635 -0.137033,-0.2415 -0.226327,-0.34708 -0.156689,-0.1859 -0.349885,-0.33807 -0.573405,-0.44029 -0.122986,-0.0562 -0.253281,-0.0966 -0.390314,-0.12074 -0.09323,-0.0164 -0.188137,-0.0292 -0.285858,-0.0292 -0.04605,0 -0.08873,0.0102 -0.133665,0.0136 -0.336402,0.0282 -0.642474,0.15557 -0.891267,0.35606 -0.106709,0.0865 -0.202743,0.18364 -0.285301,0.2937 -0.08312,0.11066 -0.155003,0.22914 -0.208354,0.35888 -0.06627,0.1623 -0.102213,0.3392 -0.113445,0.52231 -0.0016,0.0326 -0.0095,0.064 -0.0095,0.0971 0,0.1084 0.0118,0.21341 0.03202,0.3162 0.02695,0.13702 0.07469,0.26619 0.133659,0.38918" />
    <path
       inkscape:export-ydpi="206.42"
       inkscape:export-xdpi="206.42"
       id="path279-5-3"
       style="fill:#01b5ce;fill-opacity:1;fill-rule:nonzero;stroke:none;stroke-width:0.0561607"
       d="m 55.394695,155.42859 c -0.828371,-0.2606 -1.469729,-0.93901 -1.662921,-1.79434 l -3.644275,0.1977 c -0.03988,0.34987 -0.149947,0.67561 -0.321239,0.96539 l 3.846455,3.23992 c 0.409973,-0.34764 0.930021,-0.56611 1.504544,-0.58409 l 0.277436,-2.02458" />
    <path
       inkscape:export-ydpi="206.42"
       inkscape:export-xdpi="206.42"
       id="path281-2-4"
       style="fill:#01b5ce;fill-opacity:1;fill-rule:nonzero;stroke:none;stroke-width:0.0561607"
       d="m 54.78591,165.01859 v -2.69683 c -0.616644,-0.10445 -1.150174,-0.43807 -1.520269,-0.91093 l -6.61181,3.57293 6.27653,1.49332 c 0.322921,-0.75929 1.018754,-1.31752 1.855549,-1.45849" />
    <path
       inkscape:export-ydpi="206.42"
       inkscape:export-xdpi="206.42"
       id="path283-9-8"
       style="fill:#01b5ce;fill-opacity:1;fill-rule:nonzero;stroke:none;stroke-width:0.0561607"
       d="m 52.735483,167.43577 c 0,-0.0556 0.01292,-0.10728 0.01628,-0.16121 l -6.892611,-1.63988 c 1.66011,2.44523 3.922268,4.48725 6.595519,5.94179 l 1.220375,-2.22284 c -0.567786,-0.45096 -0.939569,-1.13837 -0.939569,-1.91786" />
    <path
       inkscape:export-ydpi="206.42"
       inkscape:export-xdpi="206.42"
       id="path285-09-1"
       style="fill:#01b5ce;fill-opacity:1;fill-rule:nonzero;stroke:none;stroke-width:0.0561607"
       d="m 55.194198,169.89389 c -0.282484,0 -0.550376,-0.0578 -0.8031,-0.14599 l -1.210826,2.20542 c 2.315509,1.13612 4.906207,1.83532 7.654713,1.99484 l -4.264846,-4.47602 c -0.393124,0.26563 -0.866561,0.42175 -1.375941,0.42175" />
    <path
       inkscape:export-ydpi="206.42"
       inkscape:export-xdpi="206.42"
       id="path287-8-2"
       style="fill:#01b5ce;fill-opacity:1;fill-rule:nonzero;stroke:none;stroke-width:0.0561607"
       d="m 45.769302,155.11072 -2.901266,1.66627 c 0.14377,2.82434 0.970459,5.47681 2.33348,7.81646 l 1.614621,-8.73749 c -0.413904,-0.1522 -0.771087,-0.41108 -1.046835,-0.74524" />
    <path
       inkscape:export-ydpi="206.42"
       inkscape:export-xdpi="206.42"
       id="path289-0-8"
       style="fill:#01b5ce;fill-opacity:1;fill-rule:nonzero;stroke:none;stroke-width:0.0561607"
       d="m 52.877004,160.69198 c -0.08536,-0.24881 -0.141521,-0.51051 -0.141521,-0.78794 0,-0.45547 0.133097,-0.87666 0.349319,-1.24285 l -3.845891,-3.23991 c -0.429068,0.36393 -0.976636,0.5925 -1.582048,0.5925 -0.01293,0 -0.02472,-0.004 -0.03819,-0.004 l -1.544422,8.35838 6.802753,-3.67626" />
    <path
       inkscape:export-ydpi="206.42"
       inkscape:export-xdpi="206.42"
       id="path291-53-3"
       style="fill:#01b5ce;fill-opacity:1;fill-rule:nonzero;stroke:none;stroke-width:0.0561607"
       d="m 45.198146,153.55449 c 0,-0.92608 0.521171,-1.72468 1.279903,-2.14364 l -1.763448,-5.06965 c -1.022686,2.74851 -1.705042,5.59362 -1.846003,8.45614 -0.02246,0.35044 -0.03594,0.70313 -0.03707,1.05805 l 2.527233,-1.45175 c -0.09884,-0.26562 -0.160618,-0.54926 -0.160618,-0.84915" />
    <path
       inkscape:export-ydpi="206.42"
       inkscape:export-xdpi="206.42"
       id="path293-5-9"
       style="fill:#01b5ce;fill-opacity:1;fill-rule:nonzero;stroke:none;stroke-width:0.0561607"
       d="m 47.656863,151.09634 c 1.17039,0 2.148149,0.82276 2.395254,1.91959 l 3.643151,-0.19826 c 0.02808,-0.24991 0.0848,-0.49028 0.182522,-0.71157 l -8.157911,-5.36279 1.528696,4.3946 c 0.133661,-0.0232 0.268447,-0.0416 0.408288,-0.0416" />
    <path
       inkscape:export-ydpi="206.42"
       inkscape:export-xdpi="206.42"
       id="path295-5-9"
       style="fill:#01b5ce;fill-opacity:1;fill-rule:nonzero;stroke:none;stroke-width:0.0561607"
       d="m 55.513753,129.22285 4.194088,0.63576 c 0.282487,-0.8531 1.011453,-1.49894 1.91508,-1.65171 v -5.25325 c -0.921037,0.8334 -3.318538,3.07817 -6.109168,6.2692" />
    <path
       inkscape:export-ydpi="206.42"
       inkscape:export-xdpi="206.42"
       id="path297-4-9"
       style="fill:#01b5ce;fill-opacity:1;fill-rule:nonzero;stroke:none;stroke-width:0.0561607"
       d="m 53.143772,142.75535 -4.479387,-4.17274 -0.104456,0.008 c -1.262496,2.06162 -2.412105,4.24402 -3.347742,6.50617 l 7.53003,-1.05861 c 0.01349,-0.47287 0.156691,-0.91319 0.401555,-1.28327" />
    <path
       inkscape:export-ydpi="206.42"
       inkscape:export-xdpi="206.42"
       id="path299-51-6"
       style="fill:#01b5ce;fill-opacity:1;fill-rule:nonzero;stroke:none;stroke-width:0.0561607"
       d="m 55.036947,146.549 c -1.026053,-0.0663 -1.874083,-0.75872 -2.175107,-1.70222 l -7.034694,0.98956 8.5033,5.5891 c 0.304952,-0.32797 0.696956,-0.56721 1.140062,-0.69077 L 55.036947,146.549" />
    <path
       inkscape:export-ydpi="206.42"
       inkscape:export-xdpi="206.42"
       id="path301-1-1"
       style="fill:#01b5ce;fill-opacity:1;fill-rule:nonzero;stroke:none;stroke-width:0.0561607"
       d="m 55.194198,141.64785 c 0.02639,0 0.05054,0.007 0.07638,0.008 l 0.361679,-1.79657 c -0.741326,-0.28473 -1.305742,-0.91598 -1.501179,-1.69661 l -4.359202,0.33528 3.934625,3.66449 c 0.414468,-0.31787 0.926092,-0.51443 1.487697,-0.51443" />
    <path
       inkscape:export-ydpi="206.42"
       inkscape:export-xdpi="206.42"
       id="path303-6-7"
       style="fill:#01b5ce;fill-opacity:1;fill-rule:nonzero;stroke:none;stroke-width:0.0561607"
       d="m 55.713688,135.25453 -0.865999,-5.2589 c -1.893746,2.22171 -3.914409,4.84443 -5.754236,7.73503 l 4.979781,-0.38303 c 0.08929,-0.9772 0.744688,-1.78367 1.640454,-2.0931" />
    <path
       inkscape:export-ydpi="206.42"
       inkscape:export-xdpi="206.42"
       id="path305-1-3"
       style="fill:#01b5ce;fill-opacity:1;fill-rule:nonzero;stroke:none;stroke-width:0.0561607"
       d="m 59.577547,130.66562 -3.888574,-0.58967 0.829497,5.03591 c 0.426821,0.003 0.822756,0.12133 1.172639,0.31564 l 2.518808,-3.16803 c -0.382454,-0.42627 -0.621699,-0.98058 -0.63237,-1.59385" />
    <path
       inkscape:export-ydpi="206.42"
       inkscape:export-xdpi="206.42"
       id="path307-93-9"
       style="fill:#01b5ce;fill-opacity:1;fill-rule:nonzero;stroke:none;stroke-width:0.0561607"
       d="m 56.393231,145.21968 c 0.09323,-0.10053 0.171853,-0.21398 0.237563,-0.33584 0.0657,-0.12017 0.117935,-0.24655 0.151632,-0.38244 0.03145,-0.12695 0.05336,-0.25778 0.05336,-0.39483 0,-0.13871 -0.02247,-0.27124 -0.05504,-0.39985 -0.03426,-0.13592 -0.08705,-0.26284 -0.152759,-0.38247 -0.06627,-0.1213 -0.144331,-0.23475 -0.238681,-0.33528 -0.137033,-0.14656 -0.2999,-0.26563 -0.482422,-0.35436 -0.122995,-0.0596 -0.251598,-0.10897 -0.389196,-0.13648 -0.104456,-0.0215 -0.212846,-0.0331 -0.323486,-0.0331 -0.03033,0 -0.05841,0.007 -0.08817,0.009 -0.290914,0.0158 -0.56217,0.10445 -0.793549,0.25273 -0.116256,0.0747 -0.221277,0.16397 -0.315626,0.2645 -0.09379,0.10109 -0.171851,0.21454 -0.23812,0.33641 -0.09884,0.18084 -0.162864,0.38077 -0.187579,0.59475 -0.0067,0.0612 -0.01854,0.1213 -0.01854,0.18421 0,0.0781 0.01236,0.1522 0.02303,0.22744 0.01964,0.13871 0.05055,0.27294 0.102212,0.39819 0.21678,0.52284 0.696956,0.90418 1.273166,0.99122 0.07975,0.0118 0.16006,0.0248 0.243177,0.0248 0.05784,0 0.112319,-0.0113 0.168481,-0.0175 0.139277,-0.0147 0.274067,-0.0432 0.40099,-0.091 0.242613,-0.0899 0.456588,-0.23419 0.629562,-0.42009" />
    <path
       inkscape:export-ydpi="206.42"
       inkscape:export-xdpi="206.42"
       id="path309-4-8"
       style="fill:#01b5ce;fill-opacity:1;fill-rule:nonzero;stroke:none;stroke-width:0.0561607"
       d="m 46.015284,153.55449 c 0,0.15164 0.02752,0.29484 0.06571,0.43415 0.03763,0.13476 0.09098,0.2617 0.159495,0.38018 0.06908,0.11963 0.147704,0.23252 0.243738,0.33079 0.138156,0.14154 0.302145,0.25499 0.482981,0.33923 0.123554,0.0578 0.25441,0.10163 0.392004,0.12748 0.09716,0.0181 0.196001,0.0297 0.297651,0.0297 0.03931,0 0.07582,-0.009 0.114568,-0.0113 0.310007,-0.022 0.595865,-0.12522 0.83511,-0.29594 0.112322,-0.0803 0.210603,-0.17636 0.299337,-0.28194 0.08873,-0.10501 0.165114,-0.21959 0.225766,-0.34425 0.05897,-0.12243 0.107267,-0.24994 0.134225,-0.38639 0.02077,-0.10392 0.03257,-0.21116 0.03257,-0.32182 0,-0.0298 -0.0073,-0.0584 -0.009,-0.0882 -0.0079,-0.14097 -0.03426,-0.27576 -0.07526,-0.4049 -0.211164,-0.66328 -0.825562,-1.14794 -1.557336,-1.14794 -0.04549,0 -0.08873,0.0102 -0.133663,0.0136 -0.1404,0.0118 -0.275187,0.0393 -0.403234,0.0842 -0.130855,0.0461 -0.257217,0.10222 -0.370659,0.17802 -0.441986,0.29428 -0.734024,0.79638 -0.734024,1.36528" />
    <path
       inkscape:export-ydpi="206.42"
       inkscape:export-xdpi="206.42"
       id="path311-7-4"
       style="fill:#01b5ce;fill-opacity:1;fill-rule:nonzero;stroke:none;stroke-width:0.0561607"
       d="m 58.007291,138.23383 c 0.0556,-0.12465 0.09267,-0.25721 0.115688,-0.39536 0.01459,-0.0882 0.02752,-0.17633 0.02752,-0.26845 0,-0.0494 -0.01011,-0.0955 -0.01459,-0.1432 -0.02752,-0.31507 -0.140961,-0.60316 -0.321801,-0.84184 -0.08312,-0.1101 -0.180275,-0.2078 -0.288104,-0.29374 -0.107267,-0.0854 -0.222397,-0.16117 -0.348759,-0.2179 -0.161741,-0.0725 -0.337523,-0.11399 -0.521733,-0.1303 -0.04886,-0.005 -0.09603,-0.0147 -0.146016,-0.0147 -0.09098,0 -0.179154,0.0124 -0.266203,0.0271 -0.138156,0.0226 -0.270693,0.0595 -0.394809,0.11458 -0.49197,0.2179 -0.855328,0.66943 -0.951363,1.2142 -0.01685,0.0932 -0.0292,0.18757 -0.0292,0.28584 0,0.0427 0.0095,0.0831 0.01292,0.12469 0.01067,0.1404 0.03819,0.27519 0.08199,0.4038 0.142649,0.41503 0.44367,0.75311 0.833989,0.94293 0.122993,0.0595 0.251037,0.10897 0.388631,0.13705 0.105021,0.0209 0.21285,0.0326 0.324048,0.0326 0.03033,0 0.05841,-0.007 0.08817,-0.009 0.629561,-0.0343 1.165897,-0.42009 1.409635,-0.96822" />
    <path
       inkscape:export-ydpi="206.42"
       inkscape:export-xdpi="206.42"
       id="path313-9-0"
       style="fill:#009fe3;fill-opacity:1;fill-rule:nonzero;stroke:none;stroke-width:0.0561607"
       d="m 66.256181,158.77913 c -0.427945,0.36111 -0.973266,0.58745 -1.57587,0.58745 -0.134786,0 -0.264515,-0.0186 -0.393686,-0.0399 l -1.089519,3.19272 c 0.500392,0.2724 0.898573,0.70482 1.113107,1.2378 l 4.823644,-1.04851 c -5.56e-4,-0.0277 -0.0079,-0.0528 -0.0079,-0.0809 0,-0.42119 0.11625,-0.81209 0.303827,-1.15914 l -3.17364,-2.68955" />
    <path
       inkscape:export-ydpi="206.42"
       inkscape:export-xdpi="206.42"
       id="path315-8-6"
       style="fill:#009fe3;fill-opacity:1;fill-rule:nonzero;stroke:none;stroke-width:0.0561607"
       d="m 56.203408,155.54427 -0.276871,2.02461 c 0.630123,0.1988 1.147363,0.63966 1.446135,1.21869 l 4.883181,-1.5422 c -0.01572,-0.1112 -0.03426,-0.22183 -0.03426,-0.33751 0,-0.21173 0.03538,-0.41391 0.08592,-0.61048 l -4.136237,-1.84375 c -0.427384,0.64078 -1.147928,1.06482 -1.967874,1.09064" />
    <path
       inkscape:export-ydpi="206.42"
       inkscape:export-xdpi="206.42"
       id="path317-0-3"
       style="fill:#009fe3;fill-opacity:1;fill-rule:nonzero;stroke:none;stroke-width:0.0561607"
       d="m 60.279555,162.95131 c 0.446478,-0.45545 1.065931,-0.73905 1.752216,-0.73905 0.134787,0 0.264516,0.0186 0.393124,0.0393 l 1.089519,-3.19217 c -0.433561,-0.23644 -0.785689,-0.59531 -1.012015,-1.03505 l -4.88374,1.54275 c 0.01572,0.11119 0.03426,0.22126 0.03426,0.33697 0,0.37569 -0.09154,0.72782 -0.242615,1.04682 l 2.869252,2.00045" />
    <path
       inkscape:export-ydpi="206.42"
       inkscape:export-xdpi="206.42"
       id="path319-7-4"
       style="fill:#009fe3;fill-opacity:1;fill-rule:nonzero;stroke:none;stroke-width:0.0561607"
       d="m 58.584063,153.09343 c 0,0.21229 -0.03538,0.415 -0.08593,0.61157 l 4.136238,1.84376 c 0.280244,-0.42009 0.687408,-0.74467 1.164773,-0.92891 l -0.785683,-3.87621 c -0.02695,0 -0.05279,0.008 -0.08031,0.008 -0.681228,0 -1.297872,-0.27911 -1.743789,-0.72838 l -2.853531,2.01279 c 0.154444,0.32182 0.248232,0.6773 0.248232,1.05751" />
    <path
       inkscape:export-ydpi="206.42"
       inkscape:export-xdpi="206.42"
       id="path321-5-6"
       style="fill:#009fe3;fill-opacity:1;fill-rule:nonzero;stroke:none;stroke-width:0.0561607"
       d="m 71.58359,155.4488 -4.469273,1.21869 c 0.0084,0.0803 0.02472,0.15838 0.02472,0.24037 0,0.45771 -0.134225,0.88172 -0.353252,1.24957 l 3.143876,2.66426 c 0.437494,-0.40155 1.015391,-0.65258 1.655059,-0.65258 0.03145,0 0.06065,0.008 0.09154,0.01 l 1.042348,-3.80264 c -0.466135,-0.18813 -0.861505,-0.51274 -1.135013,-0.92721" />
    <path
       inkscape:export-ydpi="206.42"
       inkscape:export-xdpi="206.42"
       id="path323-84-9"
       style="fill:#009fe3;fill-opacity:1;fill-rule:nonzero;stroke:none;stroke-width:0.0561607"
       d="m 57.870822,151.36422 2.852965,-2.01278 c -0.155002,-0.32181 -0.249355,-0.67787 -0.249355,-1.05864 0,-0.27742 0.05672,-0.53969 0.142088,-0.78907 l -3.494321,-1.88981 c -0.319554,0.40772 -0.760981,0.70877 -1.273163,0.85141 l 0.43412,4.1851 c 0.618329,0.0404 1.177129,0.29989 1.587666,0.71379" />
    <path
       inkscape:export-ydpi="206.42"
       inkscape:export-xdpi="206.42"
       id="path325-2-7"
       style="fill:#009fe3;fill-opacity:1;fill-rule:nonzero;stroke:none;stroke-width:0.0561607"
       d="m 61.005154,146.78545 c 0.450407,-0.57452 1.14287,-0.95081 1.927995,-0.95081 0.01459,0 0.02808,0.004 0.04268,0.004 l 0.859821,-4.60741 c -0.42963,-0.15839 -0.798607,-0.43189 -1.077725,-0.78515 l -5.248783,2.86309 c 0.08649,0.2516 0.143772,0.51723 0.143772,0.79748 0,0.27799 -0.05616,0.54026 -0.141528,0.78906 l 3.493764,1.88979" />
    <path
       inkscape:export-ydpi="206.42"
       inkscape:export-xdpi="206.42"
       id="path327-5-4"
       style="fill:#009fe3;fill-opacity:1;fill-rule:nonzero;stroke:none;stroke-width:0.0561607"
       d="m 57.11658,142.59248 5.249348,-2.86363 c -0.08649,-0.24991 -0.143211,-0.51387 -0.143772,-0.79299 l -3.39941,-0.56667 c -0.334156,0.96204 -1.239466,1.65899 -2.313259,1.65899 -0.02639,0 -0.05055,-0.007 -0.07638,-0.008 l -0.361676,1.79659 c 0.416153,0.16005 0.773337,0.4313 1.04515,0.77558" />
    <path
       inkscape:export-ydpi="206.42"
       inkscape:export-xdpi="206.42"
       id="path329-0-9"
       style="fill:#009fe3;fill-opacity:1;fill-rule:nonzero;stroke:none;stroke-width:0.0561607"
       d="m 59.634268,165.19944 c -0.03763,-0.17075 -0.06065,-0.34708 -0.06065,-0.52906 0,-0.37513 0.09154,-0.72782 0.242615,-1.04625 l -2.869255,-2.00045 c -0.355498,0.36223 -0.822192,0.60991 -1.343925,0.69808 v 2.69683 c 0.709871,0.11963 1.313039,0.54195 1.678079,1.13275 l 2.353138,-0.9519" />
    <path
       inkscape:export-ydpi="206.42"
       inkscape:export-xdpi="206.42"
       id="path331-7-4"
       style="fill:#009fe3;fill-opacity:1;fill-rule:nonzero;stroke:none;stroke-width:0.0561607"
       d="m 64.821837,149.8479 c -0.267326,0.32405 -0.609346,0.57957 -1.007525,0.73344 l 0.78569,3.87621 c 0.02752,0 0.05279,-0.008 0.08031,-0.008 0.986745,0 1.833649,0.58744 2.224527,1.42818 l 4.351332,-1.18723 c -0.04718,-0.19039 -0.08031,-0.38696 -0.08031,-0.59194 0,-0.19431 0.02808,-0.38077 0.07076,-0.56162 l -6.424782,-3.68917" />
    <path
       inkscape:export-ydpi="206.42"
       inkscape:export-xdpi="206.42"
       id="path333-0-1"
       style="fill:#009fe3;fill-opacity:1;fill-rule:nonzero;stroke:none;stroke-width:0.0561607"
       d="m 65.969762,141.0155 c -0.375714,0.23363 -0.815453,0.37457 -1.289451,0.37457 -0.01459,0 -0.02808,-0.004 -0.04212,-0.005 l -0.86038,4.60744 c 0.570591,0.2106 1.036726,0.62451 1.318652,1.15635 l 3.15455,-1.0401 c -0.01854,-0.1213 -0.03707,-0.24262 -0.03707,-0.36841 0,-0.58632 0.214534,-1.11816 0.558238,-1.54105 l -2.802421,-3.18431" />
    <path
       inkscape:export-ydpi="206.42"
       inkscape:export-xdpi="206.42"
       id="path335-7-9"
       style="fill:#009fe3;fill-opacity:1;fill-rule:nonzero;stroke:none;stroke-width:0.0561607"
       d="m 62.366489,138.13164 c 0.207234,-0.59811 0.63574,-1.08672 1.19117,-1.37482 l -1.182183,-3.70885 c -0.113445,0.0164 -0.225767,0.0348 -0.343705,0.0348 -0.430191,0 -0.828932,-0.1213 -1.18106,-0.31617 l -2.51937,3.16803 c 0.390316,0.43468 0.634616,1.00248 0.635739,1.63034 l 3.399409,0.56667" />
    <path
       inkscape:export-ydpi="206.42"
       inkscape:export-xdpi="206.42"
       id="path337-6-6"
       style="fill:#009fe3;fill-opacity:1;fill-rule:nonzero;stroke:none;stroke-width:0.0561607"
       d="m 59.945398,165.9548 -2.353135,0.95191 c 0.03763,0.17075 0.06065,0.34708 0.06065,0.52906 0,0.55148 -0.189264,1.05579 -0.497021,1.46634 l 4.467024,4.68886 v -6.50285 c -0.709873,-0.1202 -1.312477,-0.54251 -1.677523,-1.13332" />
    <path
       inkscape:export-ydpi="206.42"
       inkscape:export-xdpi="206.42"
       id="path339-8-7"
       style="fill:#009fe3;fill-opacity:1;fill-rule:nonzero;stroke:none;stroke-width:0.0561607"
       d="m 63.181942,138.26753 c -0.0556,0.12469 -0.09323,0.25666 -0.116252,0.39483 -0.01459,0.0882 -0.02695,0.1769 -0.02695,0.26902 0,0.0494 0.0101,0.0955 0.01459,0.1432 0.0073,0.0876 0.01964,0.1741 0.04044,0.25721 0.03426,0.13536 0.08649,0.26227 0.152194,0.38244 0.06683,0.12133 0.144895,0.23422 0.238684,0.33475 0.142649,0.15217 0.312815,0.27629 0.503202,0.36559 0.123554,0.0579 0.253845,0.10222 0.392001,0.12804 0.09772,0.0181 0.197685,0.0303 0.300459,0.0303 0.03819,0 0.07413,-0.008 0.111199,-0.0113 0.225205,-0.0152 0.436369,-0.0753 0.627315,-0.17241 0.123554,-0.0629 0.23756,-0.1404 0.340896,-0.23083 0.103336,-0.0916 0.198809,-0.19039 0.27631,-0.30384 0.178031,-0.26058 0.28249,-0.57452 0.284737,-0.91203 0,-0.004 0.0011,-0.007 0.0011,-0.0113 0,-0.13761 -0.02247,-0.26901 -0.05448,-0.39649 v 0 c -0.0337,-0.13592 -0.08649,-0.26284 -0.152197,-0.3836 -0.111757,-0.20441 -0.26283,-0.38187 -0.447599,-0.52228 -0.109513,-0.0831 -0.225766,-0.15725 -0.354375,-0.21119 -0.125239,-0.0528 -0.260587,-0.0842 -0.399302,-0.10388 -0.07694,-0.0113 -0.153881,-0.0237 -0.233629,-0.0237 -0.03145,0 -0.06065,0.007 -0.09154,0.009 -0.140964,0.008 -0.275189,0.0343 -0.404359,0.0758 -0.133099,0.0421 -0.259461,0.0977 -0.375153,0.17071 -0.274624,0.17298 -0.494213,0.42289 -0.627315,0.72167" />
    <path
       inkscape:export-ydpi="206.42"
       inkscape:export-xdpi="206.42"
       id="path341-2-0"
       style="fill:#009fe3;fill-opacity:1;fill-rule:nonzero;stroke:none;stroke-width:0.0561607"
       d="m 62.821954,146.66302 c -0.429068,0.0292 -0.811524,0.22014 -1.087834,0.51723 -0.09323,0.10053 -0.171292,0.21398 -0.237561,0.33528 -0.06515,0.1202 -0.117376,0.24712 -0.151073,0.38303 -0.03201,0.12692 -0.05335,0.25776 -0.05335,0.39424 0,0.20498 0.04212,0.39932 0.110636,0.58013 0.04942,0.12974 0.112884,0.25217 0.192069,0.36393 0.07975,0.11345 0.176344,0.21229 0.281926,0.30158 0.265642,0.22578 0.60036,0.36785 0.97102,0.38752 0.02864,0 0.05616,0.008 0.08536,0.008 0.11176,0 0.220712,-0.0119 0.326294,-0.0331 0.137595,-0.0274 0.266204,-0.0775 0.389196,-0.13761 0.170728,-0.0837 0.326294,-0.19151 0.457708,-0.32627 0.09604,-0.0983 0.175224,-0.21119 0.2443,-0.3308 0.06796,-0.1185 0.121308,-0.24542 0.158937,-0.37964 0.03819,-0.13928 0.06515,-0.28307 0.06515,-0.43414 0,-0.0365 -0.0084,-0.0713 -0.01067,-0.10725 -0.0095,-0.1404 -0.0365,-0.27519 -0.07919,-0.40437 -0.04381,-0.13196 -0.0994,-0.25778 -0.172974,-0.3729 -0.16736,-0.25947 -0.404921,-0.46671 -0.686285,-0.59811 -0.123554,-0.0579 -0.253848,-0.10279 -0.391443,-0.12804 -0.09772,-0.0186 -0.197685,-0.0309 -0.301021,-0.0309 -0.03819,0 -0.07357,0.009 -0.111195,0.0119" />
    <path
       inkscape:export-ydpi="206.42"
       inkscape:export-xdpi="206.42"
       id="path343-3-9"
       style="fill:#009fe3;fill-opacity:1;fill-rule:nonzero;stroke:none;stroke-width:0.0561607"
       d="m 54.569129,153.58876 c 0.148266,0.46332 0.490286,0.83961 0.937326,1.02269 0.125239,0.0511 0.259463,0.082 0.398178,0.10109 0.07301,0.0102 0.145458,0.0226 0.221271,0.0226 0.06571,0 0.127488,-0.0118 0.190949,-0.0192 0.439739,-0.0522 0.823316,-0.27464 1.086146,-0.6043 0.08593,-0.10783 0.161747,-0.22295 0.218466,-0.34987 0.05617,-0.12468 0.09491,-0.25668 0.11794,-0.39483 0.01516,-0.0893 0.02752,-0.17972 0.02752,-0.2735 0,-0.20441 -0.04212,-0.39762 -0.110637,-0.57844 -0.04886,-0.1303 -0.112324,-0.25273 -0.191507,-0.36449 -0.07975,-0.11346 -0.175785,-0.21172 -0.280803,-0.30158 -0.228016,-0.19375 -0.50601,-0.32575 -0.814894,-0.37234 -0.08031,-0.0119 -0.16006,-0.0248 -0.243177,-0.0248 -0.05784,0 -0.112321,0.0113 -0.168481,0.0175 -0.139841,0.0147 -0.274066,0.0432 -0.401548,0.0904 -0.197689,0.0741 -0.375717,0.18421 -0.529038,0.32351 -0.102212,0.0932 -0.194877,0.19544 -0.271257,0.31112 -0.07525,0.11456 -0.131417,0.24037 -0.176344,0.37234 -0.02359,0.068 -0.0483,0.13479 -0.06234,0.20667 -0.02077,0.10335 -0.03257,0.21059 -0.03257,0.32012 0,0.0309 0.0079,0.0595 0.0095,0.0904 0.0079,0.14041 0.03426,0.27574 0.07526,0.40491" />
    <path
       inkscape:export-ydpi="206.42"
       inkscape:export-xdpi="206.42"
       id="path345-9-7"
       style="fill:#009fe3;fill-opacity:1;fill-rule:nonzero;stroke:none;stroke-width:0.0561607"
       d="m 64.1524,158.45452 c 0.128609,0.0444 0.263396,0.0713 0.403795,0.0825 0.04156,0.003 0.08144,0.0124 0.124116,0.0124 0.35269,0 0.677861,-0.11455 0.945746,-0.30437 0.112322,-0.0803 0.211165,-0.17637 0.30046,-0.28082 0.08874,-0.10501 0.165114,-0.21959 0.225767,-0.34425 0.10502,-0.21624 0.169606,-0.45604 0.169606,-0.71213 0,-0.008 -0.0022,-0.0158 -0.0028,-0.0237 -0.0017,-0.14097 -0.02639,-0.27576 -0.06178,-0.40604 -0.03706,-0.13478 -0.09042,-0.2617 -0.158372,-0.38077 -0.269573,-0.47007 -0.760978,-0.79186 -1.332696,-0.8222 -0.0292,-0.003 -0.05672,-0.008 -0.08592,-0.008 -0.11176,0 -0.220712,0.0118 -0.326294,0.0326 -0.137592,0.0282 -0.265639,0.0781 -0.388631,0.13815 -0.220715,0.10784 -0.411658,0.2634 -0.563293,0.45322 -0.08593,0.10784 -0.161742,0.22296 -0.218466,0.3499 -0.0556,0.12409 -0.09435,0.25665 -0.117376,0.3948 -0.01516,0.0893 -0.02752,0.17916 -0.02752,0.27237 0,0.0298 0.0073,0.0579 0.009,0.0876 0.0073,0.14041 0.0337,0.27517 0.0747,0.40434 0.04212,0.1331 0.09715,0.25948 0.169604,0.37516 0.125798,0.20049 0.290912,0.37347 0.489162,0.5032 0.114003,0.0753 0.239804,0.13143 0.371221,0.17634" />
    <path
       inkscape:export-ydpi="206.42"
       inkscape:export-xdpi="206.42"
       id="path347-03-3"
       style="fill:#009fe3;fill-opacity:1;fill-rule:nonzero;stroke:none;stroke-width:0.0561607"
       d="m 63.491388,163.93525 c -0.130294,-0.25722 -0.32124,-0.47738 -0.560485,-0.63517 -0.114004,-0.0747 -0.239804,-0.13087 -0.371221,-0.1758 -0.128609,-0.0444 -0.263395,-0.0719 -0.403795,-0.0825 -0.04212,-0.004 -0.08199,-0.013 -0.124116,-0.013 -0.407726,0 -0.776703,0.15557 -1.063684,0.40212 -0.105021,0.0904 -0.201055,0.18925 -0.280244,0.30271 -0.07862,0.11232 -0.1404,0.23588 -0.188699,0.36615 -0.06683,0.17859 -0.108391,0.36954 -0.108391,0.5706 0,0.0736 0.01236,0.14376 0.0219,0.21454 0.01798,0.13928 0.04886,0.27407 0.09997,0.39986 0.05223,0.12917 0.122431,0.24767 0.204425,0.35831 0.220712,0.29766 0.537458,0.51556 0.905874,0.61104 0.131417,0.0342 0.266762,0.0578 0.40885,0.0578 v 0 c 0.142087,0 0.277435,-0.0237 0.408288,-0.0578 0.171292,-0.0438 0.33191,-0.11233 0.476806,-0.20555 0.116253,-0.0747 0.220711,-0.16456 0.3145,-0.26565 0.09379,-0.10053 0.17185,-0.21455 0.238122,-0.33641 0.116253,-0.21452 0.187576,-0.45489 0.197685,-0.71324 5.56e-4,-0.0215 0.0062,-0.041 0.0062,-0.0629 0,-0.1196 -0.01459,-0.23588 -0.03931,-0.3482 -0.02977,-0.13702 -0.08087,-0.26506 -0.142649,-0.38693" />
    <path
       inkscape:export-ydpi="206.42"
       inkscape:export-xdpi="206.42"
       id="path349-8-1"
       style="fill:#009fe3;fill-opacity:1;fill-rule:nonzero;stroke:none;stroke-width:0.0561607"
       d="m 56.713911,166.8208 c -0.05223,-0.12861 -0.122433,-0.24711 -0.204424,-0.35774 -0.220712,-0.2971 -0.538023,-0.51613 -0.906436,-0.61104 -0.13142,-0.0342 -0.266765,-0.0579 -0.408853,-0.0579 v 0 c -0.142088,0 -0.277436,0.0237 -0.408288,0.0579 -0.45041,0.11624 -0.822192,0.41783 -1.036162,0.81994 -0.06403,0.12076 -0.115697,0.24824 -0.148268,0.38469 -0.0292,0.1219 -0.04886,0.24825 -0.04886,0.37912 0,0.0102 0.0028,0.0198 0.0034,0.0298 0.0084,0.45883 0.205549,0.86935 0.517802,1.16252 0.09997,0.0938 0.212849,0.17242 0.334157,0.23925 0.119622,0.0663 0.247108,0.1185 0.382456,0.15333 0.129729,0.0332 0.263954,0.0562 0.403795,0.0562 0.289789,0 0.5588,-0.082 0.795235,-0.21455 0.120746,-0.0674 0.23419,-0.14602 0.334156,-0.24149 0.09997,-0.0949 0.185894,-0.20219 0.259464,-0.31957 0.15781,-0.25213 0.252725,-0.547 0.252725,-0.86543 0,-0.0735 -0.01236,-0.14376 -0.0219,-0.21452 -0.01798,-0.13927 -0.04886,-0.27406 -0.09997,-0.40041" />
    <path
       inkscape:export-ydpi="206.42"
       inkscape:export-xdpi="206.42"
       id="path351-31-5"
       style="fill:#009fe3;fill-opacity:1;fill-rule:nonzero;stroke:none;stroke-width:0.0561607"
       d="m 53.757047,160.68075 c 0.06627,0.12186 0.144331,0.23531 0.237557,0.33584 0.210603,0.22688 0.482984,0.39142 0.791306,0.47117 0.130852,0.0343 0.2662,0.0579 0.408288,0.0579 v 0 c 0.142088,0 0.277433,-0.0237 0.408853,-0.0579 0.245985,-0.0634 0.46782,-0.18308 0.654832,-0.34425 0.10502,-0.0899 0.201058,-0.18872 0.280805,-0.30215 0.07863,-0.11232 0.139841,-0.23588 0.188702,-0.36618 0.06683,-0.17859 0.108391,-0.36952 0.108391,-0.57114 0,-0.0298 -0.0073,-0.0579 -0.009,-0.0871 -0.0073,-0.14094 -0.0337,-0.27573 -0.0747,-0.4049 -0.04212,-0.13256 -0.09716,-0.25891 -0.169604,-0.37459 -0.181957,-0.28979 -0.44816,-0.52006 -0.767715,-0.65148 -0.125801,-0.0511 -0.260587,-0.082 -0.399305,-0.1011 -0.07301,-0.0102 -0.145457,-0.0226 -0.221271,-0.0226 -0.06515,0 -0.126923,0.0119 -0.190387,0.0198 -0.280241,0.0326 -0.539702,0.13144 -0.759293,0.28812 -0.112319,0.0798 -0.2106,0.17634 -0.299337,0.28135 -0.08873,0.10561 -0.165111,0.2196 -0.225204,0.34485 -0.103898,0.21508 -0.167361,0.45322 -0.167361,0.70761 0,0.13649 0.0219,0.26733 0.05335,0.3937 0.0337,0.13589 0.08593,0.26284 0.151071,0.38301" />
    <path
       inkscape:export-ydpi="206.42"
       inkscape:export-xdpi="206.42"
       id="path353-0-6"
       style="fill:#009fe3;fill-opacity:1;fill-rule:nonzero;stroke:none;stroke-width:0.0561607"
       d="m 60.727157,131.60855 c 0.08312,0.11066 0.180275,0.20781 0.288103,0.29431 0.107267,0.0853 0.222397,0.16061 0.349321,0.21734 0.203863,0.0915 0.429068,0.14545 0.66719,0.14545 0.03145,0 0.06065,-0.008 0.09154,-0.01 0.140403,-0.008 0.275748,-0.0343 0.404918,-0.0758 0.13254,-0.0421 0.258902,-0.0971 0.374032,-0.17015 0.432438,-0.27294 0.724473,-0.73965 0.759855,-1.27821 0.0028,-0.0365 0.01123,-0.0708 0.01123,-0.10784 0,-0.10445 -0.01236,-0.20554 -0.03089,-0.30441 v 0 c -0.02582,-0.13814 -0.07132,-0.26788 -0.129727,-0.39144 -0.206113,-0.43634 -0.596994,-0.76434 -1.072671,-0.88789 -0.130858,-0.0337 -0.266206,-0.0573 -0.408288,-0.0573 v 0 c -0.142087,0 -0.277436,0.0243 -0.408852,0.0578 -0.495337,0.12861 -0.903066,0.47794 -1.100752,0.94183 -0.05335,0.12466 -0.08592,0.25888 -0.106705,0.39706 -0.01236,0.0803 -0.02472,0.16118 -0.02472,0.24486 0,0.0573 0.01123,0.11119 0.01685,0.16735 0.03145,0.30494 0.143772,0.58463 0.319554,0.81715" />
    <text
       inkscape:export-ydpi="206.42"
       inkscape:export-xdpi="206.42"
       id="text4169-48-7-8"
       y="171.16795"
       x="89.169746"
       style="font-style:normal;font-variant:normal;font-weight:normal;font-stretch:normal;font-size:25.4px;line-height:0%;font-family:'Cardenio Modern';-inkscape-font-specification:'Cardenio Modern, Normal';font-variant-ligatures:normal;font-variant-caps:normal;font-variant-numeric:normal;font-variant-east-asian:normal;letter-spacing:0px;word-spacing:0px;fill:#000000;fill-opacity:1;stroke:none;stroke-width:0.573352;stroke-linecap:butt;stroke-linejoin:miter;stroke-miterlimit:4;stroke-dasharray:none;stroke-opacity:1"
       xml:space="preserve"><tspan
         style="font-style:normal;font-variant:normal;font-weight:normal;font-stretch:normal;font-size:25.4px;line-height:1.25;font-family:'Cardenio Modern';-inkscape-font-specification:'Cardenio Modern, Normal';font-variant-ligatures:normal;font-variant-caps:normal;font-variant-numeric:normal;font-variant-east-asian:normal;stroke:none;stroke-width:0.573352;stroke-miterlimit:4;stroke-dasharray:none;stroke-opacity:1"
         y="171.16795"
         x="89.169746"
         id="tspan4171-3-6-0"
         sodipodi:role="line">Rainfall</tspan></text>
  </g>
</svg>
